<svg width="41" height="41" viewBox="0 0 41 41" fill="none" xmlns="http://www.w3.org/2000/svg">
<path d="M31.1373 9.66301L21.4743 8.58936L9.6637 9.66301L8.58984 20.3999L9.66349 31.1368L20.4004 32.479L31.1373 31.1368L32.211 20.1317L31.1373 9.66301Z" fill="white"></path>
<path d="M14.0678 26.3213C13.2653 25.7791 12.7096 24.9874 12.4062 23.9404L14.2692 23.1728C14.4383 23.817 14.7335 24.3162 15.1549 24.6706C15.5738 25.0249 16.0838 25.1993 16.6796 25.1993C17.289 25.1993 17.8124 25.0141 18.2498 24.6436C18.6872 24.2732 18.9075 23.8007 18.9075 23.2291C18.9075 22.644 18.6766 22.1661 18.2149 21.7958C17.7533 21.4255 17.1735 21.2401 16.4809 21.2401H15.4046V19.3961H16.3708C16.9667 19.3961 17.4687 19.2352 17.8767 18.9131C18.2847 18.591 18.4887 18.1507 18.4887 17.5897C18.4887 17.0905 18.3061 16.6932 17.9412 16.3953C17.5762 16.0975 17.1144 15.9471 16.5534 15.9471C16.0058 15.9471 15.5709 16.0922 15.2488 16.3847C14.9267 16.6772 14.6931 17.0369 14.5456 17.461L12.7016 16.6934C12.9458 16.0008 13.3942 15.3888 14.0517 14.86C14.7094 14.3312 15.5495 14.0654 16.5695 14.0654C17.3237 14.0654 18.0028 14.2105 18.6042 14.503C19.2054 14.7955 19.6778 15.2009 20.0187 15.7162C20.3596 16.2342 20.5287 16.8141 20.5287 17.4582C20.5287 18.1158 20.3704 18.6713 20.0536 19.1277C19.7368 19.584 19.3475 19.9329 18.8859 20.1773V20.2872C19.4952 20.5422 19.9918 20.9314 20.3837 21.4549C20.7729 21.9784 20.9687 22.6038 20.9687 23.334C20.9687 24.0641 20.7835 24.7163 20.413 25.2881C20.0426 25.8599 19.5299 26.3107 18.8804 26.6381C18.2282 26.9656 17.4954 27.132 16.6821 27.132C15.74 27.1347 14.8704 26.8636 14.0678 26.3213Z" fill="#1A73E8"></path>
<path d="M25.4997 17.077L23.465 18.556L22.4424 17.0046L26.1117 14.3579H27.5183V26.8421H25.4997V17.077Z" fill="#1A73E8"></path>
<path d="M31.1366 40.8001L40.7996 31.137L35.9681 28.9897L31.1366 31.137L28.9893 35.9686L31.1366 40.8001Z" fill="#EA4335"></path>
<path d="M7.51562 35.9682L9.66293 40.7998H31.1366V31.1367H9.66293L7.51562 35.9682Z" fill="#34A853"></path>
<path d="M3.22095 0C1.44146 0 0 1.44146 0 3.22095V31.1367L4.83153 33.284L9.66306 31.1367V9.66306H31.1367L33.284 4.83153L31.1369 0H3.22095Z" fill="#4285F4"></path>
<path d="M0 31.1367V37.5788C0 39.3585 1.44146 40.7998 3.22095 40.7998H9.66306V31.1367H0Z" fill="#188038"></path>
<path d="M31.1367 9.66293V31.1366H40.7998V9.66293L35.9682 7.51562L31.1367 9.66293Z" fill="#FBBC04"></path>
<path d="M40.7998 9.66306V3.22095C40.7998 1.44126 39.3583 0 37.5788 0H31.1367V9.66306H40.7998Z" fill="#1967D2"></path>
</svg>