<svg width="41" height="38" viewBox="0 0 41 38" fill="none" xmlns="http://www.w3.org/2000/svg">
<g clip-path="url(#clip0_1452_76626)">
<path d="M39.0607 0H11.2275C10.267 0 9.48828 0.778675 9.48828 1.73922V9.48837L25.6185 14.2326L40.7999 9.48837V1.73922C40.7999 0.778675 40.0212 0 39.0607 0Z" fill="#41A5EE"></path>
<path d="M40.7999 9.48828H9.48828V18.9767L25.6185 21.8232L40.7999 18.9767V9.48828Z" fill="#2B7CD3"></path>
<path d="M9.48828 18.9766V28.4649L24.6697 30.3626L40.7999 28.4649V18.9766H9.48828Z" fill="#185ABD"></path>
<path d="M11.2275 37.9537H39.0607C40.0213 37.9537 40.7999 37.175 40.7999 36.2145V28.4653H9.48828V36.2145C9.48828 37.175 10.267 37.9537 11.2275 37.9537Z" fill="#103F91"></path>
<path opacity="0.1" d="M21.0328 7.59082H9.48828V31.3118H21.0328C21.992 31.3086 22.7689 30.5318 22.772 29.5725V9.33004C22.7689 8.3708 21.992 7.59394 21.0328 7.59082Z" fill="black"></path>
<path opacity="0.2" d="M20.0839 8.53955H9.48828V32.2605H20.0839C21.0432 32.2574 21.82 31.4805 21.8232 30.5213V10.2788C21.82 9.31953 21.0432 8.54267 20.0839 8.53955Z" fill="black"></path>
<path opacity="0.2" d="M20.0839 8.53955H9.48828V30.3628H20.0839C21.0432 30.3597 21.82 29.5828 21.8232 28.6236V10.2788C21.82 9.31953 21.0432 8.54267 20.0839 8.53955Z" fill="black"></path>
<path opacity="0.2" d="M19.1351 8.53955H9.48828V30.3628H19.1351C20.0944 30.3597 20.8712 29.5828 20.8743 28.6236V10.2788C20.8712 9.31953 20.0944 8.54267 19.1351 8.53955Z" fill="black"></path>
<path d="M1.73922 8.53955H19.1352C20.0957 8.53955 20.8744 9.31823 20.8744 10.2788V27.6748C20.8744 28.6353 20.0957 29.414 19.1352 29.414H1.73922C0.778675 29.414 0 28.6353 0 27.6748V10.2788C0 9.31823 0.778675 8.53955 1.73922 8.53955Z" fill="url(#paint0_linear_1452_76626)"></path>
<path d="M7.13764 21.8783C7.1718 22.1469 7.19457 22.3803 7.205 22.5805H7.24484C7.26002 22.3907 7.29164 22.162 7.33972 21.8945C7.3878 21.6269 7.43114 21.4008 7.46972 21.2161L9.29908 13.3236H11.6645L13.5622 21.0974C13.6725 21.5808 13.7514 22.0708 13.7985 22.5643H13.8298C13.8652 22.0862 13.9311 21.6108 14.0272 21.1411L15.5405 13.3198H17.6935L15.0348 24.63H12.5194L10.7167 17.1398C10.6645 16.9245 10.6047 16.6426 10.5392 16.2963C10.4737 15.95 10.433 15.6966 10.4168 15.5372H10.3855C10.3646 15.7213 10.3238 15.9946 10.2631 16.357C10.2024 16.7195 10.1537 16.9877 10.117 17.1617L8.42233 24.6281H5.86426L3.19141 13.3236H5.38321L7.03135 21.2322C7.06837 21.3944 7.10348 21.6108 7.13764 21.8783Z" fill="white"></path>
</g>
<defs>
<linearGradient id="paint0_linear_1452_76626" x1="3.62631" y1="7.18056" x2="17.2481" y2="30.773" gradientUnits="userSpaceOnUse">
<stop stop-color="#2368C4"></stop>
<stop offset="0.5" stop-color="#1A5DBE"></stop>
<stop offset="1" stop-color="#1146AC"></stop>
</linearGradient>
<clipPath id="clip0_1452_76626">
<rect width="40.8" height="37.9535" fill="white"></rect>
</clipPath>
</defs>
</svg>