<svg width="42" height="42" viewBox="0 0 42 42" fill="none" xmlns="http://www.w3.org/2000/svg">
<path d="M32.0133 10.2631L22.3502 9.18945L10.5397 10.2631L9.46582 21L10.5395 31.7369L21.2764 33.0791L32.0133 31.7369L33.087 20.7318L32.0133 10.2631Z" fill="white"/>
<path d="M14.9443 26.9214C14.1418 26.3792 13.5861 25.5875 13.2827 24.5405L15.1456 23.7729C15.3148 24.4171 15.6099 24.9163 16.0314 25.2707C16.4502 25.625 16.9602 25.7994 17.5561 25.7994C18.1654 25.7994 18.6889 25.6142 19.1263 25.2437C19.5637 24.8733 19.784 24.4008 19.784 23.8292C19.784 23.2441 19.5531 22.7662 19.0914 22.3959C18.6298 22.0256 18.05 21.8402 17.3574 21.8402H16.2811V19.9962H17.2472C17.8431 19.9962 18.3452 19.8353 18.7532 19.5132C19.1612 19.1911 19.3652 18.7508 19.3652 18.1898C19.3652 17.6906 19.1826 17.2932 18.8176 16.9954C18.4527 16.6976 17.9908 16.5472 17.4298 16.5472C16.8823 16.5472 16.4474 16.6923 16.1252 16.9848C15.8031 17.2773 15.5696 17.637 15.4221 18.0611L13.5781 17.2935C13.8223 16.6009 14.2707 15.9889 14.9282 15.4601C15.5859 14.9313 16.4259 14.6655 17.4459 14.6655C18.2001 14.6655 18.8792 14.8106 19.4806 15.1031C20.0818 15.3956 20.5543 15.801 20.8952 16.3163C21.2361 16.8342 21.4052 17.4142 21.4052 18.0582C21.4052 18.7159 21.2469 19.2714 20.9301 19.7278C20.6132 20.1841 20.224 20.533 19.7624 20.7774V20.8873C20.3717 21.1423 20.8682 21.5315 21.2601 22.055C21.6494 22.5785 21.8452 23.2039 21.8452 23.9341C21.8452 24.6642 21.66 25.3164 21.2895 25.8882C20.919 26.46 20.4064 26.9108 19.7569 27.2382C19.1047 27.5657 18.3719 27.7321 17.5585 27.7321C16.6165 27.7348 15.7468 27.4637 14.9443 26.9214Z" fill="#1A73E8"/>
<path d="M26.3762 17.6771L24.3415 19.1561L23.3188 17.6047L26.9882 14.958H28.3948V27.4422H26.3762V17.6771Z" fill="#1A73E8"/>
<path d="M32.0135 41.4002L41.6766 31.7371L36.845 29.5898L32.0135 31.7371L29.8662 36.5687L32.0135 41.4002Z" fill="#EA4335"/>
<path d="M8.39209 36.5683L10.5394 41.3999H32.013V31.7368H10.5394L8.39209 36.5683Z" fill="#34A853"/>
<path d="M4.09742 0.600098C2.31793 0.600098 0.876465 2.04156 0.876465 3.82105V31.7368L5.70799 33.8841L10.5395 31.7368V10.2632H32.0132L34.1605 5.43163L32.0134 0.600098H4.09742Z" fill="#4285F4"/>
<path d="M0.876465 31.7368V38.1789C0.876465 39.9586 2.31793 41.3999 4.09742 41.3999H10.5395V31.7368H0.876465Z" fill="#188038"/>
<path d="M32.0132 10.263V31.7367H41.6762V10.263L36.8447 8.11572L32.0132 10.263Z" fill="#FBBC04"/>
<path d="M41.6762 10.2632V3.82105C41.6762 2.04136 40.2348 0.600098 38.4553 0.600098H32.0132V10.2632H41.6762Z" fill="#1967D2"/>
</svg>
