<svg width="42" height="42" viewBox="0 0 42 42" fill="none" xmlns="http://www.w3.org/2000/svg">
<path d="M21.0769 31.1996C26.7105 31.1996 31.2773 26.6326 31.2773 20.999C31.2773 15.3654 26.7105 10.7983 21.0769 10.7983C15.4433 10.7983 10.8765 15.3654 10.8765 20.999C10.8765 26.6326 15.4433 31.1996 21.0769 31.1996Z" fill="white"/>
<path d="M12.2427 26.1016L3.41019 10.8032C1.61927 13.9042 0.67627 17.422 0.67627 21.0032C0.67627 24.5844 1.61885 28.1022 3.40955 31.2032C5.20025 34.3042 7.7759 36.8795 10.8773 38.6693C13.9788 40.4591 17.497 41.4011 21.078 41.4L29.9105 26.1016V26.0993C29.0159 27.6507 27.7285 28.9392 26.1779 29.8351C24.6273 30.7309 22.8681 31.2027 21.0773 31.203C19.2865 31.2032 17.5272 30.732 15.9764 29.8366C14.4255 28.9411 13.1378 27.6531 12.2427 26.102V26.1016Z" fill="#229342"/>
<path d="M29.9097 26.1013L21.0774 41.3997C24.6583 41.4003 28.1764 40.4577 31.2776 38.6674C34.3788 36.8772 36.954 34.3017 38.7443 31.2003C40.5345 28.0989 41.4767 24.5809 41.4761 20.9999C41.4754 17.4189 40.532 13.9011 38.7407 10.8003H21.0759L21.0737 10.8018C22.8645 10.8009 24.624 11.2716 26.1751 12.1665C27.7264 13.0615 29.0144 14.3489 29.9101 15.8998C30.8057 17.4505 31.2772 19.2098 31.2772 21.0006C31.2771 22.7915 30.8056 24.5507 29.9099 26.1015L29.9097 26.1013Z" fill="#FBC116"/>
<path d="M21.0769 29.0768C25.5368 29.0768 29.1523 25.4613 29.1523 21.0012C29.1523 16.541 25.5368 12.9258 21.0769 12.9258C16.6169 12.9258 13.0015 16.5412 13.0015 21.0012C13.0015 25.4611 16.6169 29.0768 21.0769 29.0768Z" fill="#1A73E8"/>
<path d="M21.0769 10.8007H38.7417C36.9517 7.6993 34.3767 5.12365 31.2754 3.33295C28.1743 1.54237 24.6564 0.599826 21.0754 0.600098C17.4945 0.600312 13.9767 1.54332 10.8759 3.33445C7.77495 5.12548 5.20025 7.70136 3.41064 10.8031L12.2432 26.1015L12.2455 26.1028C11.3494 24.5523 10.8773 22.7932 10.8767 21.0023C10.8761 19.2115 11.3471 17.4521 12.2423 15.9011C13.1373 14.35 14.4254 13.062 15.9762 12.1667C17.527 11.2715 19.2865 10.8001 21.0774 10.8005L21.0769 10.8007Z" fill="#E33B2E"/>
</svg>
