<svg width="30" height="42" viewBox="0 0 30 42" fill="none" xmlns="http://www.w3.org/2000/svg">
<path d="M18.915 0.600098H3.24233C1.72116 0.600098 0.476562 1.85192 0.476562 3.38192V38.6183C0.476562 40.1483 1.72116 41.4001 3.24233 41.4001H27.2123C28.7335 41.4001 29.9781 40.1483 29.9781 38.6183V11.7274L23.5246 7.09101L18.915 0.600098Z" fill="#4285F4"/>
<path d="M19.7241 10.9136L29.9782 21.2248V11.7273L19.7241 10.9136Z" fill="url(#paint0_linear_231_354)"/>
<path d="M7.85205 30.2727H22.6028V28.4182H7.85205V30.2727ZM7.85205 33.9818H18.9151V32.1273H7.85205V33.9818ZM7.85205 21V22.8545H22.6028V21H7.85205ZM7.85205 26.5636H22.6028V24.7091H7.85205V26.5636Z" fill="#F1F1F1"/>
<path d="M18.9146 0.600098V8.94555C18.9146 10.4825 20.1522 11.7274 21.6803 11.7274H29.9776L18.9146 0.600098Z" fill="#A1C2FA"/>
<path d="M3.24233 0.600098C1.72116 0.600098 0.476562 1.85192 0.476562 3.38192V3.61373C0.476562 2.08373 1.72116 0.831916 3.24233 0.831916H18.915V0.600098H3.24233Z" fill="white" fill-opacity="0.2"/>
<path d="M27.2123 41.168H3.24233C1.72116 41.168 0.476562 39.9162 0.476562 38.3862V38.618C0.476562 40.148 1.72116 41.3999 3.24233 41.3999H27.2123C28.7335 41.3999 29.9781 40.148 29.9781 38.618V38.3862C29.9781 39.9162 28.7335 41.168 27.2123 41.168Z" fill="#1A237E" fill-opacity="0.2"/>
<path d="M21.6808 11.7276C20.1527 11.7276 18.915 10.4828 18.915 8.9458V9.17762C18.915 10.7146 20.1527 11.9594 21.6808 11.9594H29.9781V11.7276H21.6808Z" fill="#1A237E" fill-opacity="0.1"/>
<path d="M18.915 0.600098H3.24233C1.72116 0.600098 0.476562 1.85192 0.476562 3.38192V38.6183C0.476562 40.1483 1.72116 41.4001 3.24233 41.4001H27.2123C28.7335 41.4001 29.9781 40.1483 29.9781 38.6183V11.7274L18.915 0.600098Z" fill="url(#paint1_radial_231_354)"/>
<defs>
<linearGradient id="paint0_linear_231_354" x1="532.484" y1="99.4473" x2="532.484" y2="1042.18" gradientUnits="userSpaceOnUse">
<stop stop-color="#1A237E" stop-opacity="0.2"/>
<stop offset="1" stop-color="#1A237E" stop-opacity="0.02"/>
</linearGradient>
<radialGradient id="paint1_radial_231_354" cx="0" cy="0" r="1" gradientUnits="userSpaceOnUse" gradientTransform="translate(93.9389 80.7736) scale(4757.08 4757.08)">
<stop stop-color="white" stop-opacity="0.1"/>
<stop offset="1" stop-color="white" stop-opacity="0"/>
</radialGradient>
</defs>
</svg>
