<svg width="41" height="32" viewBox="0 0 41 32" fill="none" xmlns="http://www.w3.org/2000/svg">
<path d="M2.85848 31.3036H9.34939V15.54L0.0766602 8.58545V28.5218C0.0766602 30.0611 1.32384 31.3036 2.85848 31.3036Z" fill="#4285F4"/>
<path d="M31.604 31.3036H38.0949C39.6342 31.3036 40.8767 30.0564 40.8767 28.5218V8.58545L31.604 15.54" fill="#34A853"/>
<path d="M31.604 3.48551V15.5401L40.8767 8.58551V4.87642C40.8767 1.43624 36.9497 -0.524944 34.2004 1.53824" fill="#FBBC04"/>
<path d="M9.34961 15.5399V3.48535L20.4769 11.8308L31.6041 3.48535V15.5399L20.4769 23.8853" fill="#EA4335"/>
<path d="M0.0766602 4.87642V8.58551L9.34939 15.5401V3.48551L6.75302 1.53824C3.99902 -0.524944 0.0766602 1.43624 0.0766602 4.87642Z" fill="#C5221F"/>
</svg>
