<svg width="42" height="34" viewBox="0 0 42 34" fill="none" xmlns="http://www.w3.org/2000/svg">
<path d="M31.8882 23.6175V22.4297V20.7893V13.0681V11.4277L33.1521 8.79738L39.4717 3.79133C40.3142 3.08427 41.5782 3.67822 41.5782 4.78124V28.7085C41.5782 29.8115 40.2862 30.4054 39.4436 29.6984L31.8882 23.6175Z" fill="#00AC47"/>
<path d="M10.9783 0.169922L0.77832 10.3699H10.9783V0.169922Z" fill="#EA4335"/>
<path d="M10.9783 10.3701H0.77832V23.6301H10.9783V10.3701Z" fill="#2684FC"/>
<path d="M0.77832 23.6299V30.4299C0.77832 32.2999 2.30832 33.8299 4.17833 33.8299H10.9783V23.6299H0.77832Z" fill="#0066DA"/>
<path d="M33.1635 3.53092C33.1635 1.68238 31.666 0.169922 29.8357 0.169922H23.1802H10.9785V10.3699H23.4735V16.9999L33.1635 16.6947V3.53092Z" fill="#FFBA00"/>
<path d="M23.4735 23.63H10.9785V33.83H23.1802H29.8357C31.666 33.83 33.1635 32.3197 33.1635 30.4739V17H23.4735V23.63Z" fill="#00AC47"/>
<path d="M33.1631 8.83984V24.6498L23.4731 16.9998L33.1631 8.83984Z" fill="#00832D"/>
</svg>
