<svg width="30" height="42" viewBox="0 0 30 42" fill="none" xmlns="http://www.w3.org/2000/svg">
<path d="M18.7964 0.600098H3.03279C1.50279 0.600098 0.250977 1.85192 0.250977 3.38192V38.6183C0.250977 40.1483 1.50279 41.4001 3.03279 41.4001H27.1419C28.6719 41.4001 29.9237 40.1483 29.9237 38.6183V11.7274L23.4328 7.09101L18.7964 0.600098Z" fill="#0F9D58"/>
<path d="M7.66895 20.5366V33.9821H22.5053V20.5366H7.66895ZM14.1599 32.1275H9.52349V29.8093H14.1599V32.1275ZM14.1599 28.4184H9.52349V26.1003H14.1599V28.4184ZM14.1599 24.7093H9.52349V22.3912H14.1599V24.7093ZM20.6508 32.1275H16.0144V29.8093H20.6508V32.1275ZM20.6508 28.4184H16.0144V26.1003H20.6508V28.4184ZM20.6508 24.7093H16.0144V22.3912H20.6508V24.7093Z" fill="#F1F1F1"/>
<path d="M19.6099 10.9136L29.9235 21.2248V11.7273L19.6099 10.9136Z" fill="url(#paint0_linear_231_404)"/>
<path d="M18.7964 0.600098V8.94555C18.7964 10.4825 20.0413 11.7274 21.5782 11.7274H29.9237L18.7964 0.600098Z" fill="#87CEAC"/>
<path d="M3.03279 0.600098C1.50279 0.600098 0.250977 1.85192 0.250977 3.38192V3.61373C0.250977 2.08373 1.50279 0.831916 3.03279 0.831916H18.7964V0.600098H3.03279Z" fill="white" fill-opacity="0.2"/>
<path d="M27.1419 41.168H3.03279C1.50279 41.168 0.250977 39.9162 0.250977 38.3862V38.618C0.250977 40.148 1.50279 41.3999 3.03279 41.3999H27.1419C28.6719 41.3999 29.9237 40.148 29.9237 38.618V38.3862C29.9237 39.9162 28.6719 41.168 27.1419 41.168Z" fill="#263238" fill-opacity="0.2"/>
<path d="M21.5782 11.7271C20.0412 11.7271 18.7964 10.4823 18.7964 8.94531V9.17713C18.7964 10.7141 20.0412 11.9589 21.5782 11.9589H29.9237V11.7271H21.5782Z" fill="#263238" fill-opacity="0.1"/>
<path d="M18.7964 0.600098H3.03279C1.50279 0.600098 0.250977 1.85192 0.250977 3.38192V38.6183C0.250977 40.1483 1.50279 41.4001 3.03279 41.4001H27.1419C28.6719 41.4001 29.9237 40.1483 29.9237 38.6183V11.7274L18.7964 0.600098Z" fill="url(#paint1_radial_231_404)"/>
<defs>
<linearGradient id="paint0_linear_231_404" x1="535.345" y1="99.4472" x2="535.345" y2="1042.18" gradientUnits="userSpaceOnUse">
<stop stop-color="#263238" stop-opacity="0.2"/>
<stop offset="1" stop-color="#263238" stop-opacity="0.02"/>
</linearGradient>
<radialGradient id="paint1_radial_231_404" cx="0" cy="0" r="1" gradientUnits="userSpaceOnUse" gradientTransform="translate(94.2557 81.2388) scale(4784.68 4784.68)">
<stop stop-color="white" stop-opacity="0.1"/>
<stop offset="1" stop-color="white" stop-opacity="0"/>
</radialGradient>
</defs>
</svg>
