<svg width="49" height="48" viewBox="0 0 49 48" fill="none" xmlns="http://www.w3.org/2000/svg">
<g clip-path="url(#clip0_228_1499)">
<path d="M25.6283 17.3335C28.7961 17.3335 31.3641 14.7217 31.3641 11.4998C31.3641 8.27787 28.7961 5.66602 25.6283 5.66602C22.4606 5.66602 19.8926 8.27787 19.8926 11.4998C19.8926 14.7217 22.4606 17.3335 25.6283 17.3335Z" fill="#7B83EB"/>
<path opacity="0.1" d="M25.2189 12.75H20.0239L20.0497 12.8662L20.0522 12.8762L20.0792 12.9837C20.4567 14.4396 21.3726 15.6909 22.6355 16.4763C23.8985 17.2618 25.411 17.5206 26.8572 17.1988V14.4163C26.8559 13.9747 26.6829 13.5517 26.3759 13.2395C26.0689 12.9273 25.653 12.7513 25.2189 12.75Z" fill="black"/>
<path opacity="0.2" d="M23.9902 14H20.4458C20.911 14.9975 21.6449 15.8403 22.5623 16.4305C23.4798 17.0206 24.543 17.3338 25.6285 17.3337V15.6662C25.6272 15.2247 25.4542 14.8017 25.1472 14.4895C24.8403 14.1773 24.4243 14.0013 23.9902 14Z" fill="black"/>
<path d="M38.5329 17.75C40.9086 17.75 42.8344 15.7912 42.8344 13.375C42.8344 10.9588 40.9086 9 38.5329 9C36.1573 9 34.2314 10.9588 34.2314 13.375C34.2314 15.7912 36.1573 17.75 38.5329 17.75Z" fill="#5059C9"/>
<path d="M42.2198 19H32.5586C32.35 19 32.15 19.0843 32.0024 19.2343C31.8549 19.3843 31.7721 19.5878 31.7721 19.8V29.9375C31.7454 31.4047 32.2152 32.8366 33.1028 33.9935C33.9904 35.1504 35.2418 35.9621 36.6475 36.2925C37.5428 36.4836 38.4688 36.4692 39.3579 36.2503C40.2471 36.0315 41.077 35.6138 41.7874 35.0275C42.4978 34.4413 43.0707 33.7013 43.4644 32.8614C43.8581 32.0215 44.0627 31.1029 44.0633 30.1725V20.875C44.0633 20.3777 43.8691 19.9008 43.5233 19.5492C43.1776 19.1975 42.7087 19 42.2198 19Z" fill="#5059C9"/>
<path d="M35.4604 20.875V32.75C35.4616 34.9507 34.7486 37.0902 33.432 38.8366C32.1154 40.583 30.2689 41.8386 28.179 42.4084C26.0891 42.9783 23.8726 42.8306 21.8737 41.9883C19.8747 41.146 18.205 39.6562 17.1237 37.75C16.8872 37.3502 16.6818 36.9323 16.5092 36.5C16.3483 36.0924 16.2129 35.6749 16.1036 35.25C15.901 34.4326 15.7978 33.593 15.7964 32.75V20.875C15.7961 20.6287 15.8435 20.3847 15.9361 20.1571C16.0286 19.9294 16.1644 19.7226 16.3356 19.5484C16.5069 19.3743 16.7102 19.2362 16.934 19.1421C17.1578 19.0479 17.3977 18.9997 17.6399 19H33.6169C33.8591 18.9997 34.099 19.0479 34.3228 19.1421C34.5466 19.2362 34.7499 19.3743 34.9212 19.5484C35.0924 19.7226 35.2282 19.9294 35.3207 20.1571C35.4133 20.3847 35.4607 20.6287 35.4604 20.875Z" fill="#7B83EB"/>
<path opacity="0.2" d="M23.9902 14H20.4458C20.911 14.9975 21.6449 15.8403 22.5623 16.4305C23.4798 17.0206 24.543 17.3338 25.6285 17.3337V15.6662C25.6272 15.2247 25.4542 14.8017 25.1472 14.4895C24.8403 14.1773 24.4243 14.0013 23.9902 14Z" fill="black"/>
<path opacity="0.1" d="M26.8574 19V34.8375C26.8574 35.2143 26.7306 35.5798 26.4981 35.8731C26.2655 36.1665 25.9413 36.3701 25.5792 36.45C25.4636 36.485 25.3434 36.5019 25.2228 36.5H16.5092C16.3483 36.0924 16.2129 35.6749 16.1036 35.25C15.901 34.4326 15.7978 33.593 15.7964 32.75V20.875C15.7961 20.6287 15.8435 20.3847 15.9361 20.1571C16.0286 19.9294 16.1644 19.7226 16.3356 19.5484C16.5069 19.3743 16.7102 19.2362 16.934 19.1421C17.1578 19.0479 17.3977 18.9997 17.6399 19H26.8574Z" fill="black"/>
<path opacity="0.2" d="M25.6284 19V36.0875C25.6302 36.2102 25.6136 36.3324 25.5792 36.45C25.5006 36.8182 25.3005 37.148 25.0121 37.3845C24.7236 37.621 24.3643 37.75 23.9938 37.75H17.1237C16.8872 37.3502 16.6818 36.9323 16.5092 36.5C16.3483 36.0924 16.2129 35.6749 16.1036 35.25C15.901 34.4326 15.7978 33.593 15.7964 32.75V20.875C15.7961 20.6287 15.8435 20.3847 15.9361 20.1571C16.0286 19.9294 16.1644 19.7226 16.3356 19.5484C16.5069 19.3743 16.7102 19.2362 16.934 19.1421C17.1578 19.0479 17.3977 18.9997 17.6399 19H25.6284Z" fill="black"/>
<path opacity="0.2" d="M25.6284 19V33.5875C25.6264 34.0278 25.4536 34.4495 25.1475 34.7609C24.8414 35.0722 24.4267 35.248 23.9938 35.25H16.1036C15.901 34.4326 15.7978 33.593 15.7964 32.75V20.875C15.7961 20.6287 15.8435 20.3847 15.9361 20.1571C16.0286 19.9294 16.1644 19.7226 16.3356 19.5484C16.5069 19.3743 16.7102 19.2362 16.934 19.1421C17.1578 19.0479 17.3977 18.9997 17.6399 19H25.6284Z" fill="black"/>
<path opacity="0.2" d="M17.6399 19C17.3977 18.9997 17.1578 19.0479 16.934 19.1421C16.7102 19.2362 16.5069 19.3743 16.3356 19.5484C16.1644 19.7226 16.0286 19.9294 15.9361 20.1571C15.8435 20.3847 15.7961 20.6287 15.7964 20.875V32.75C15.7978 33.593 15.901 34.4326 16.1036 35.25H22.7648C23.1977 35.248 23.6124 35.0722 23.9185 34.7609C24.2246 34.4495 24.3974 34.0278 24.3994 33.5875V19H17.6399Z" fill="black"/>
<path d="M6.37361 14H22.7611C23.1956 14 23.6123 14.1756 23.9195 14.488C24.2268 14.8005 24.3994 15.2243 24.3994 15.6663V32.3337C24.3994 32.7757 24.2268 33.1995 23.9195 33.512C23.6123 33.8244 23.1956 34 22.7611 34H6.37361C5.93912 34 5.52242 33.8244 5.21519 33.512C4.90795 33.1995 4.73535 32.7757 4.73535 32.3337V15.6663C4.73535 15.2243 4.90795 14.8005 5.21519 14.488C5.52242 14.1756 5.93912 14 6.37361 14Z" fill="#4B53BC"/>
<path d="M19.4586 20.2188H15.7839V30.2439H13.3726V20.2188H9.67578V17.7563H19.4586V20.2188Z" fill="white"/>
</g>
<defs>
<clipPath id="clip0_228_1499">
<rect width="40" height="40" fill="white" transform="translate(4.5 4)"/>
</clipPath>
</defs>
</svg>
