<svg width="81" height="26" viewBox="0 0 81 26" fill="none" xmlns="http://www.w3.org/2000/svg">
<path d="M27.0251 19.7409C25.5808 18.6826 24.2547 17.6492 23.047 16.6406C22.5116 17.3877 21.97 18.2281 21.4221 19.162C20.8867 20.0833 20.563 20.7993 20.4509 21.3098C20.3513 21.7331 20.4198 22.0008 20.6564 22.1128C20.8182 22.2 20.8556 22.2809 20.7684 22.3556C20.6813 22.4304 20.563 22.4366 20.4136 22.3743C20.0027 22.2374 19.6977 21.9323 19.4984 21.4592C19.2992 20.986 19.2494 20.5316 19.349 20.0958C19.4486 19.6227 19.7475 18.9877 20.2455 18.1908C20.7435 17.3815 21.2914 16.5784 21.889 15.7815C21.8392 15.7815 21.7583 15.7753 21.6462 15.7628C20.5132 15.6632 19.5607 15.5699 18.7887 15.4827C18.0292 15.3955 17.2822 15.271 16.5476 15.1092C16.2736 15.0469 16.062 14.8103 15.9126 14.3995C15.7631 13.9886 15.7445 13.6088 15.8565 13.2602C15.981 12.9116 16.2301 12.7746 16.6036 12.8493C17.3382 12.9738 18.6891 13.4034 20.6564 14.138C20.7933 14.1878 20.893 14.2251 20.9552 14.2501L23.0096 14.3621C23.2711 14.0508 23.7256 13.4905 24.373 12.6812C25.78 10.9256 27.0126 9.43152 28.071 8.19887C29.1293 6.95377 30.1129 5.93279 31.0218 5.13593C31.1339 5.03632 31.2958 5.04254 31.5074 5.1546C31.7315 5.26666 31.8996 5.42852 32.0117 5.64019C32.1237 5.83941 32.1175 6.0075 31.993 6.14446C31.7938 6.33122 31.3144 6.86039 30.5549 7.73196C29.8079 8.59108 28.9674 9.56848 28.0336 10.6642C27.1122 11.7474 26.3091 12.6937 25.6243 13.503C24.9395 14.3123 24.6033 14.717 24.6158 14.717C26.4461 14.5302 28.3947 14.1567 30.4615 13.5964C32.5284 13.0236 34.477 12.2703 36.3073 11.3365C38.1376 10.3902 39.5632 9.30078 40.5842 8.06813C41.3562 7.14676 41.711 6.27519 41.6488 5.45343C41.5865 4.63166 40.9889 3.94063 39.8558 3.38034C38.4862 2.70798 36.5501 2.23485 34.0474 1.96092C31.5572 1.687 28.8305 1.6123 25.8671 1.73681C22.9038 1.86132 19.9467 2.16014 16.9958 2.63328C14.0449 3.09396 11.3119 3.72896 8.79682 4.53828C6.29417 5.34759 4.35182 6.26274 2.96976 7.28372C1.67485 8.24245 0.983823 9.28211 0.896666 10.4027C0.809509 11.5108 1.58147 12.5629 3.21255 13.559C4.53236 14.3434 6.15721 14.9349 8.08711 15.3333C10.0295 15.7193 11.673 15.7566 13.0177 15.4453C13.2543 15.3955 13.3975 15.4267 13.4473 15.5387C13.4971 15.6383 13.4224 15.7442 13.2231 15.8562C12.2893 16.3792 11.0878 16.6033 9.61858 16.5286C8.14937 16.4414 6.69883 16.1301 5.26696 15.5948C3.8351 15.0469 2.70829 14.387 1.88652 13.615C1.12701 12.8929 0.622745 12.1085 0.373725 11.2618C0.124705 10.4027 0.124705 9.5747 0.373725 8.77784C0.622745 7.96853 1.08343 7.25259 1.75578 6.63004C3.00088 5.52191 4.65064 4.56318 6.70505 3.75387C8.77192 2.9321 11.1189 2.2473 13.7461 1.69945C16.3732 1.13916 19.0751 0.740727 21.8517 0.504158C24.6283 0.255138 27.2865 0.167981 29.8265 0.242687C32.379 0.317393 34.6202 0.553962 36.5501 0.952394C38.4924 1.35083 39.9243 1.90489 40.8457 2.6146C41.7546 3.31186 42.209 4.25813 42.209 5.45343C42.209 6.64872 41.9289 7.68215 41.3686 8.55372C40.3476 10.1474 38.7228 11.5108 36.494 12.6439C34.2778 13.7645 31.9557 14.636 29.5277 15.2586C27.5978 15.7566 25.7551 16.0492 23.9995 16.1364C24.9582 16.9083 26.0352 17.7052 27.2305 18.527C28.4258 19.3487 29.6585 20.1082 30.9285 20.8055C32.2109 21.5028 33.5058 22.0319 34.8132 22.393C36.1205 22.7541 37.2349 22.7603 38.1563 22.4117C39.0776 22.063 39.7002 21.2724 40.0239 20.0398C40.0737 19.8405 40.136 19.7907 40.2107 19.8903C40.2978 19.99 40.3289 20.1394 40.304 20.3386C40.192 21.6833 39.75 22.6856 38.978 23.3455C38.2061 23.9929 37.2038 24.2482 35.9711 24.1112C34.6887 23.9618 33.2381 23.4576 31.6195 22.5984C30.0133 21.7393 28.4818 20.7868 27.0251 19.7409ZM41.9476 20.3573C41.4993 19.3487 41.6176 18.2717 42.3024 17.1262C43.0744 15.8313 44.4378 14.717 46.3926 13.7831C48.3598 12.8493 50.4329 12.1209 52.6119 11.598C54.8032 11.075 56.7705 10.7202 58.5136 10.5334C58.6008 10.521 58.7191 10.5085 58.8685 10.4961C59.0552 10.4836 59.1548 10.4712 59.1673 10.4587C59.1797 10.4587 58.9307 10.4027 58.4202 10.2906C56.3907 9.8175 54.9215 9.26343 54.0126 8.62843C52.9667 7.86892 52.4873 7.04715 52.5745 6.16313C52.6741 5.26666 53.2531 4.45735 54.3114 3.73519C55.6188 2.86362 57.3432 2.12901 59.4848 1.53136C61.6388 0.933717 63.9236 0.52906 66.3391 0.317393C68.767 0.105726 71.058 0.105726 73.212 0.317393C75.3785 0.52906 77.1278 0.964845 78.4601 1.62475C79.2819 2.03563 79.9044 2.5897 80.3278 3.28695C80.7635 3.97176 80.9129 4.69392 80.776 5.45343C80.639 6.20049 80.1908 6.87284 79.4313 7.47049C78.5224 8.19264 77.352 8.66578 75.9201 8.8899C74.5007 9.11402 73.268 9.05799 72.2222 8.72181C71.8611 8.5973 71.6494 8.47902 71.5872 8.36696C71.5374 8.2549 71.6805 8.20509 72.0167 8.21755C73.2867 8.2549 74.482 8.14907 75.6026 7.90005C76.7356 7.65103 77.8313 7.19034 78.8897 6.51799C79.6243 6.0573 80.0476 5.56549 80.1597 5.04254C80.2717 4.5196 79.8982 3.98421 79.0391 3.43637C77.7193 2.6146 75.9886 2.07298 73.847 1.81151C71.7179 1.53759 69.3958 1.50024 66.8807 1.69945C64.378 1.89867 62.0123 2.30333 59.7836 2.91342C57.5673 3.52352 55.7308 4.30171 54.2741 5.24798C53.6515 5.65887 53.3527 6.06975 53.3776 6.48063C53.4149 6.89152 53.6764 7.27127 54.162 7.6199C54.6476 7.96853 55.2701 8.29225 56.0296 8.59108C57.5985 9.20117 59.8708 9.71166 62.8466 10.1225C63.108 10.1599 63.2699 10.1848 63.3322 10.1973C63.4442 10.2097 64.2722 10.2408 65.8161 10.2906C67.8705 10.1661 69.2028 10.1537 69.8129 10.2533C69.9997 10.2906 70.1366 10.4587 70.2238 10.7575C70.3234 11.0564 70.3421 11.349 70.2798 11.6353C70.2175 11.9217 70.0806 12.0649 69.8689 12.0649C69.4331 12.0649 68.7048 12.0089 67.6838 11.8968C66.8869 11.8097 66.3017 11.7599 65.9282 11.7474C63.7368 11.6478 61.4085 11.7225 58.9432 11.9715C56.4779 12.2081 54.0811 12.6501 51.7527 13.2975C49.4368 13.9325 47.4571 14.7668 45.8136 15.8002C44.9296 16.3605 44.2012 16.983 43.6285 17.6678C43.0682 18.3527 42.8129 19.0624 42.8627 19.797C42.925 20.5191 43.4355 21.1853 44.3942 21.7953C45.7389 22.642 47.619 23.1961 50.0345 23.4576C52.4624 23.7066 55.0585 23.6879 57.8226 23.4015C60.5867 23.1152 63.1578 22.6109 65.536 21.8887C67.9141 21.1666 69.7195 20.3199 70.9522 19.3487C71.5249 18.9129 71.9545 18.4398 72.2408 17.9293C72.5397 17.4188 72.6144 16.9208 72.465 16.4352C72.328 15.9372 71.9047 15.5201 71.195 15.1839C70.9957 15.0718 70.7592 14.9784 70.4852 14.9037C70.2736 14.8415 70.2238 14.7543 70.3358 14.6423C70.4479 14.5177 70.6596 14.443 70.9708 14.4181C71.2821 14.3932 71.5996 14.4555 71.9233 14.6049C72.4587 14.8664 72.8385 15.3271 73.0626 15.987C73.2992 16.6469 73.3801 17.3192 73.3054 18.004C73.156 19.2616 72.2159 20.4195 70.4852 21.4778C68.7546 22.5362 66.5819 23.3829 63.9672 24.0179C61.3524 24.6404 58.5821 24.9953 55.6561 25.0824C52.7426 25.1571 50.0843 24.9081 47.6813 24.3354C46.5109 24.0614 45.3778 23.5821 44.2821 22.8973C43.1865 22.2 42.4083 21.3533 41.9476 20.3573Z" fill="white"/>
</svg>
