<svg width="41" height="37" viewBox="0 0 41 37" fill="none" xmlns="http://www.w3.org/2000/svg">
<path d="M3.08454 31.2424L4.88385 34.3503C5.25773 35.0046 5.79519 35.5187 6.42612 35.8926L12.8522 24.7695H0C0 25.4939 0.186942 26.2183 0.560825 26.8726L3.08454 31.2424Z" fill="#0066DA"></path>
<path d="M20.4 11.6841L13.9739 0.561035C13.343 0.934918 12.8055 1.44901 12.4316 2.1033L0.560825 22.6669C0.193818 23.3071 0.000488648 24.0321 0 24.77H12.8522L20.4 11.6841Z" fill="#00AC47"></path>
<path d="M34.3743 35.8926C35.0052 35.5187 35.5427 35.0046 35.9166 34.3503L36.6644 33.0651L40.2396 26.8726C40.6135 26.2183 40.8004 25.4939 40.8004 24.7695H27.9473L30.6822 30.1441L34.3743 35.8926Z" fill="#EA4335"></path>
<path d="M20.3998 11.6839L26.8259 0.560825C26.1949 0.186942 25.4705 0 24.7228 0H16.0767C15.329 0 14.6046 0.210309 13.9736 0.560825L20.3998 11.6839Z" fill="#00832D"></path>
<path d="M27.9474 24.7695H12.8519L6.42578 35.8926C7.05671 36.2664 7.78111 36.4534 8.52887 36.4534H32.2705C33.0182 36.4534 33.7426 36.2431 34.3736 35.8926L27.9474 24.7695Z" fill="#2684FC"></path>
<path d="M34.3042 12.3851L28.3688 2.1033C27.9949 1.44901 27.4574 0.934918 26.8265 0.561035L20.4004 11.6841L27.9482 24.77H40.777C40.777 24.0456 40.5901 23.3212 40.2162 22.6669L34.3042 12.3851Z" fill="#FFBA00"></path>
</svg>